<svg xmlns="http://www.w3.org/2000/svg" width="101" height="24" viewBox="0 0 101 24">
  <path fill="#121417" fill-rule="evenodd" d="M79.8662653,15.2084 L90.5747388,15.2084 C90.5747388,13.2902 89.0918939,10.0292 85.3027449,10.0292 C81.513802,10.0292 79.9652041,13.1302 79.8662653,15.2084 Z M92.3210082,15.528 C92.3210082,16.0076 92.2220694,16.647 92.2220694,16.647 L79.8003061,16.647 C79.9652041,20.1636 82.0078776,22.4976 85.4676429,22.4976 C88.927202,22.4976 90.8381633,20.5792 90.8381633,20.5792 L91.6620347,21.7622 C91.6620347,21.7622 89.7508673,24 85.3027449,24 C80.8548286,24 77.9882837,20.803 77.9882837,16.2634 C77.9882837,11.6916 81.3489041,8.5906 85.4016837,8.5906 C89.4214837,8.5906 92.3210082,11.5318 92.3210082,15.528 Z M73.869751,16.2634 C73.869751,12.8106 71.7938918,10.0292 68.1036816,10.0292 C64.3804918,10.0292 62.3376122,12.8106 62.3376122,16.2634 C62.3376122,19.6842 64.3804918,22.4976 68.1036816,22.4976 C71.7938918,22.4976 73.869751,19.6842 73.869751,16.2634 Z M75.6819796,16.2634 C75.6819796,20.6432 72.7164959,24 68.1036816,24 C65.7971714,24 63.6885388,23.041 62.4035714,20.867 L62.4035714,23.6804 L60.6902816,23.6804 L60.6902816,1.621 L62.4035714,1.621 L62.4035714,11.6916 C63.8862102,9.4536 65.9620694,8.5906 68.1696408,8.5906 C72.7164959,8.5906 75.6819796,11.8514 75.6819796,16.2634 Z M54.3643837,23.6804 L54.3643837,8.8462 L56.0776735,8.8462 L56.0776735,23.6804 L54.3643837,23.6804 Z M56.6377082,3.5712 C56.6377082,4.3384 56.0117143,4.946 55.2210286,4.946 C54.4301367,4.946 53.8041429,4.3384 53.8041429,3.5712 C53.8041429,2.804 54.4301367,2.1964 55.2210286,2.1964 C56.0117143,2.1964 56.6377082,2.804 56.6377082,3.5712 Z M51.5640041,8.8142 L51.3993122,10.4448 C51.036949,10.3168 50.5756469,10.189 49.7519816,10.189 C48.2691367,10.189 47.3795122,11.18 47.1160878,11.5318 C46.8524571,11.8834 46.0287918,13.1302 46.0287918,15.6878 L46.0287918,23.6804 L44.3152959,23.6804 L44.3152959,8.8462 L46.0287918,8.8462 L46.0287918,11.6276 C46.5888265,9.6136 48.2691367,8.5906 49.9166735,8.5906 C50.9050306,8.5906 51.5640041,8.8142 51.5640041,8.8142 Z M40.4278265,20.3236 L41.4163898,21.4424 C40.856149,22.0818 39.2745714,24 35.1560388,24 C31.0375061,24 27.6766796,20.803 27.6766796,16.2634 C27.6766796,11.6916 31.3011367,8.5906 35.3207306,8.5906 C39.3735102,8.5906 41.0210469,10.7326 41.3504306,11.1482 L40.2631347,12.267 C39.6041612,11.5318 38.2862143,10.093 35.2549776,10.093 C32.1907612,10.093 29.4889082,12.4908 29.4889082,16.1674 C29.4889082,19.844 31.8611714,22.4976 35.3207306,22.4976 C38.7804959,22.4976 40.4278265,20.3236 40.4278265,20.3236 Z M25.6010265,19.6202 C25.6010265,22.4016 23.0638653,24 20.2303,24 C17.3967347,24 15.6174857,22.6574 14.661902,21.1228 L15.8811163,20.1636 C16.8694735,21.5704 18.3850918,22.4976 20.2962592,22.4976 C22.2072204,22.4976 23.8875306,21.6024 23.8875306,19.6842 C23.8875306,17.766 21.1529041,17.0946 19.8349571,16.647 C18.5170102,16.1994 15.6504653,15.2402 15.6504653,12.5548 C15.6504653,9.8694 18.0557082,8.5906 20.2962592,8.5906 C22.5366041,8.5906 23.9205102,9.3578 25.1067449,10.6686 L24.0524286,11.6916 C22.9979061,10.5726 21.9435898,9.9972 20.2303,9.9972 C18.5170102,9.9972 17.2977959,10.8284 17.2977959,12.363 C17.2977959,13.8976 18.9453327,14.569 20.8233143,15.2084 C22.7342755,15.8478 25.6010265,16.8068 25.6010265,19.6202 Z M10.2799449,19.844 L10.2799449,16.1674 L5.93076122,16.4232 C2.73483265,16.583 1.7132898,17.9258 1.7132898,19.5242 C1.7132898,21.1228 2.96548367,22.5614 5.43647959,22.5614 C7.90768163,22.5614 9.55521837,20.963 10.2799449,19.844 Z M12.0262143,14.8886 L12.0262143,23.6804 L10.2799449,23.6804 L10.2799449,21.6024 C9.7199102,22.2418 8.07237347,24 5.10709592,24 C2.14161224,24 -9.23705556e-14,22.0818 -9.23705556e-14,19.5242 C-9.23705556e-14,16.9666 1.97692041,15.2084 6.09545306,15.0484 L10.2799449,14.8886 L10.2799449,14.0894 C10.2799449,11.372 8.40196327,10.0292 5.99672041,10.0292 C3.62445714,10.0292 1.81222857,11.0522 1.48263878,11.308 L0.823665306,10.093 C1.81222857,9.4536 3.62445714,8.5906 5.93076122,8.5906 C8.23727143,8.5906 9.62097143,9.2938 10.5435755,10.253 C11.4332,11.212 12.0262143,12.331 12.0262143,14.8886 Z M95.6787429,4.7122 L97.5056061,4.7122 L96.5922776,2.4414 L95.6787429,4.7122 Z M96.9319673,1.555 L99.0608,6.624 L98.2455857,6.624 L97.7094612,5.3054 L95.4748878,5.3054 L94.9389694,6.624 L94.1688959,6.624 L96.2903082,1.555 L96.9319673,1.555 Z M100.438316,4.3178 C100.438316,2.2862 98.6994673,0.5992 96.6058816,0.5992 C94.5120898,0.5992 92.7734469,2.2862 92.7734469,4.3178 C92.7734469,6.3494 94.5120898,8.0364 96.6058816,8.0364 C98.6994673,8.0364 100.438316,6.3494 100.438316,4.3178 Z M100.964753,4.3178 C100.964753,6.682 99.0424551,8.5472 96.6058816,8.5472 C94.1693082,8.5472 92.2470102,6.682 92.2470102,4.3178 C92.2470102,1.9536 94.1693082,0.0884 96.6058816,0.0884 C99.0424551,0.0884 100.964753,1.9536 100.964753,4.3178 Z"/>
</svg>
